<mxfile host="app.diagrams.net" modified="2024-05-27T16:55:09.552Z" agent="Mozilla/5.0 (Windows NT 10.0; Win64; x64) AppleWebKit/537.36 (KHTML, like Gecko) Chrome/125.0.0.0 Safari/537.36" etag="V3_1Hfuel-IczZwnKC5N" version="24.4.9" type="device">
  <diagram name="Page-1" id="GQ0kj2YBBfEznGpIxxNn">
    <mxGraphModel dx="1674" dy="756" grid="1" gridSize="10" guides="1" tooltips="1" connect="1" arrows="1" fold="1" page="1" pageScale="1" pageWidth="827" pageHeight="1169" math="0" shadow="0">
      <root>
        <mxCell id="0" />
        <mxCell id="1" parent="0" />
        <mxCell id="8iXjHYZFnUyKZ5IibE8D-12" value="GET Request" style="edgeStyle=orthogonalEdgeStyle;rounded=0;orthogonalLoop=1;jettySize=auto;html=1;" edge="1" parent="1" source="8iXjHYZFnUyKZ5IibE8D-10" target="8iXjHYZFnUyKZ5IibE8D-11">
          <mxGeometry relative="1" as="geometry">
            <mxPoint as="offset" />
          </mxGeometry>
        </mxCell>
        <mxCell id="8iXjHYZFnUyKZ5IibE8D-10" value="API Endpoint&lt;div&gt;https://api.spacexdata.com/v4/launches/past&lt;br&gt;&lt;/div&gt;" style="rounded=0;whiteSpace=wrap;html=1;" vertex="1" parent="1">
          <mxGeometry x="328" y="170" width="280" height="40" as="geometry" />
        </mxCell>
        <mxCell id="8iXjHYZFnUyKZ5IibE8D-16" value="&lt;span style=&quot;color: rgb(0, 0, 0); font-family: Helvetica; font-size: 11px; font-style: normal; font-variant-ligatures: normal; font-variant-caps: normal; font-weight: 400; letter-spacing: normal; orphans: 2; text-align: center; text-indent: 0px; text-transform: none; widows: 2; word-spacing: 0px; -webkit-text-stroke-width: 0px; white-space: nowrap; background-color: rgb(255, 255, 255); text-decoration-thickness: initial; text-decoration-style: initial; text-decoration-color: initial; display: inline !important; float: none;&quot;&gt;Status code == 200&lt;/span&gt;" style="edgeStyle=orthogonalEdgeStyle;rounded=0;orthogonalLoop=1;jettySize=auto;html=1;" edge="1" parent="1" source="8iXjHYZFnUyKZ5IibE8D-11" target="8iXjHYZFnUyKZ5IibE8D-15">
          <mxGeometry relative="1" as="geometry" />
        </mxCell>
        <mxCell id="8iXjHYZFnUyKZ5IibE8D-18" value="Status code != 200" style="edgeStyle=orthogonalEdgeStyle;rounded=0;orthogonalLoop=1;jettySize=auto;html=1;" edge="1" parent="1" source="8iXjHYZFnUyKZ5IibE8D-11" target="8iXjHYZFnUyKZ5IibE8D-17">
          <mxGeometry relative="1" as="geometry" />
        </mxCell>
        <mxCell id="8iXjHYZFnUyKZ5IibE8D-11" value="Response Status Code" style="whiteSpace=wrap;html=1;rounded=0;" vertex="1" parent="1">
          <mxGeometry x="382" y="250" width="176" height="30" as="geometry" />
        </mxCell>
        <mxCell id="8iXjHYZFnUyKZ5IibE8D-24" value="" style="edgeStyle=orthogonalEdgeStyle;rounded=0;orthogonalLoop=1;jettySize=auto;html=1;" edge="1" parent="1" source="8iXjHYZFnUyKZ5IibE8D-15" target="8iXjHYZFnUyKZ5IibE8D-23">
          <mxGeometry relative="1" as="geometry" />
        </mxCell>
        <mxCell id="8iXjHYZFnUyKZ5IibE8D-26" value="" style="edgeStyle=orthogonalEdgeStyle;rounded=0;orthogonalLoop=1;jettySize=auto;html=1;" edge="1" parent="1" source="8iXjHYZFnUyKZ5IibE8D-15" target="8iXjHYZFnUyKZ5IibE8D-25">
          <mxGeometry relative="1" as="geometry" />
        </mxCell>
        <mxCell id="8iXjHYZFnUyKZ5IibE8D-28" value="" style="edgeStyle=orthogonalEdgeStyle;rounded=0;orthogonalLoop=1;jettySize=auto;html=1;" edge="1" parent="1" source="8iXjHYZFnUyKZ5IibE8D-15" target="8iXjHYZFnUyKZ5IibE8D-27">
          <mxGeometry relative="1" as="geometry" />
        </mxCell>
        <mxCell id="8iXjHYZFnUyKZ5IibE8D-15" value="Decode json response content and convert to Pandas DataFrame" style="whiteSpace=wrap;html=1;rounded=0;" vertex="1" parent="1">
          <mxGeometry x="280" y="330" width="380" height="30" as="geometry" />
        </mxCell>
        <mxCell id="8iXjHYZFnUyKZ5IibE8D-17" value="Try again" style="whiteSpace=wrap;html=1;rounded=0;" vertex="1" parent="1">
          <mxGeometry x="130" y="250" width="120" height="30" as="geometry" />
        </mxCell>
        <mxCell id="8iXjHYZFnUyKZ5IibE8D-35" style="edgeStyle=orthogonalEdgeStyle;rounded=0;orthogonalLoop=1;jettySize=auto;html=1;exitX=0.5;exitY=1;exitDx=0;exitDy=0;" edge="1" parent="1" source="8iXjHYZFnUyKZ5IibE8D-23" target="8iXjHYZFnUyKZ5IibE8D-30">
          <mxGeometry relative="1" as="geometry" />
        </mxCell>
        <mxCell id="8iXjHYZFnUyKZ5IibE8D-23" value="Convert multiple cores into single core" style="whiteSpace=wrap;html=1;rounded=0;" vertex="1" parent="1">
          <mxGeometry x="106" y="400" width="222" height="30" as="geometry" />
        </mxCell>
        <mxCell id="8iXjHYZFnUyKZ5IibE8D-32" style="edgeStyle=orthogonalEdgeStyle;rounded=0;orthogonalLoop=1;jettySize=auto;html=1;exitX=0.5;exitY=1;exitDx=0;exitDy=0;entryX=0.5;entryY=0;entryDx=0;entryDy=0;" edge="1" parent="1" source="8iXjHYZFnUyKZ5IibE8D-25" target="8iXjHYZFnUyKZ5IibE8D-30">
          <mxGeometry relative="1" as="geometry" />
        </mxCell>
        <mxCell id="8iXjHYZFnUyKZ5IibE8D-25" value="Convert multiple payloads into single payload" style="whiteSpace=wrap;html=1;rounded=0;" vertex="1" parent="1">
          <mxGeometry x="345" y="400" width="250" height="30" as="geometry" />
        </mxCell>
        <mxCell id="8iXjHYZFnUyKZ5IibE8D-33" style="edgeStyle=orthogonalEdgeStyle;rounded=0;orthogonalLoop=1;jettySize=auto;html=1;exitX=0.5;exitY=1;exitDx=0;exitDy=0;entryX=0.5;entryY=0;entryDx=0;entryDy=0;" edge="1" parent="1" source="8iXjHYZFnUyKZ5IibE8D-27" target="8iXjHYZFnUyKZ5IibE8D-30">
          <mxGeometry relative="1" as="geometry">
            <mxPoint x="440" y="530" as="targetPoint" />
          </mxGeometry>
        </mxCell>
        <mxCell id="8iXjHYZFnUyKZ5IibE8D-27" value="Convert date UTC to datetime and extract date" style="whiteSpace=wrap;html=1;rounded=0;" vertex="1" parent="1">
          <mxGeometry x="615" y="400" width="270" height="30" as="geometry" />
        </mxCell>
        <mxCell id="8iXjHYZFnUyKZ5IibE8D-37" value="" style="edgeStyle=orthogonalEdgeStyle;rounded=0;orthogonalLoop=1;jettySize=auto;html=1;" edge="1" parent="1" source="8iXjHYZFnUyKZ5IibE8D-30" target="8iXjHYZFnUyKZ5IibE8D-36">
          <mxGeometry relative="1" as="geometry" />
        </mxCell>
        <mxCell id="8iXjHYZFnUyKZ5IibE8D-40" value="" style="edgeStyle=orthogonalEdgeStyle;rounded=0;orthogonalLoop=1;jettySize=auto;html=1;" edge="1" parent="1" source="8iXjHYZFnUyKZ5IibE8D-30" target="8iXjHYZFnUyKZ5IibE8D-39">
          <mxGeometry relative="1" as="geometry" />
        </mxCell>
        <mxCell id="8iXjHYZFnUyKZ5IibE8D-42" value="" style="edgeStyle=orthogonalEdgeStyle;rounded=0;orthogonalLoop=1;jettySize=auto;html=1;" edge="1" parent="1" source="8iXjHYZFnUyKZ5IibE8D-30" target="8iXjHYZFnUyKZ5IibE8D-41">
          <mxGeometry relative="1" as="geometry" />
        </mxCell>
        <mxCell id="8iXjHYZFnUyKZ5IibE8D-44" value="" style="edgeStyle=orthogonalEdgeStyle;rounded=0;orthogonalLoop=1;jettySize=auto;html=1;" edge="1" parent="1" source="8iXjHYZFnUyKZ5IibE8D-30" target="8iXjHYZFnUyKZ5IibE8D-43">
          <mxGeometry relative="1" as="geometry" />
        </mxCell>
        <mxCell id="8iXjHYZFnUyKZ5IibE8D-30" value="Get extra information&amp;nbsp;" style="whiteSpace=wrap;html=1;rounded=0;" vertex="1" parent="1">
          <mxGeometry x="395" y="470" width="150" height="30" as="geometry" />
        </mxCell>
        <mxCell id="8iXjHYZFnUyKZ5IibE8D-48" style="edgeStyle=orthogonalEdgeStyle;rounded=0;orthogonalLoop=1;jettySize=auto;html=1;exitX=0.5;exitY=1;exitDx=0;exitDy=0;" edge="1" parent="1" source="8iXjHYZFnUyKZ5IibE8D-36" target="8iXjHYZFnUyKZ5IibE8D-46">
          <mxGeometry relative="1" as="geometry">
            <Array as="points">
              <mxPoint x="360" y="600" />
              <mxPoint x="470" y="600" />
            </Array>
          </mxGeometry>
        </mxCell>
        <mxCell id="8iXjHYZFnUyKZ5IibE8D-36" value="Booster Version Endpoint&lt;div&gt;https://api.spacexdata.com/v4/rockets/&lt;br&gt;&lt;/div&gt;" style="whiteSpace=wrap;html=1;rounded=0;" vertex="1" parent="1">
          <mxGeometry x="250" y="540" width="220" height="40" as="geometry" />
        </mxCell>
        <mxCell id="8iXjHYZFnUyKZ5IibE8D-58" style="edgeStyle=orthogonalEdgeStyle;rounded=0;orthogonalLoop=1;jettySize=auto;html=1;exitX=0.5;exitY=1;exitDx=0;exitDy=0;" edge="1" parent="1" source="8iXjHYZFnUyKZ5IibE8D-39" target="8iXjHYZFnUyKZ5IibE8D-46">
          <mxGeometry relative="1" as="geometry">
            <Array as="points">
              <mxPoint x="118" y="600" />
              <mxPoint x="470" y="600" />
            </Array>
          </mxGeometry>
        </mxCell>
        <mxCell id="8iXjHYZFnUyKZ5IibE8D-39" value="Launch Site Endpoint&lt;div&gt;https://api.spacexdata.com/v4/launchpads/&lt;br&gt;&lt;/div&gt;" style="whiteSpace=wrap;html=1;rounded=0;" vertex="1" parent="1">
          <mxGeometry y="540" width="236" height="40" as="geometry" />
        </mxCell>
        <mxCell id="8iXjHYZFnUyKZ5IibE8D-57" style="edgeStyle=orthogonalEdgeStyle;rounded=0;orthogonalLoop=1;jettySize=auto;html=1;exitX=0.5;exitY=1;exitDx=0;exitDy=0;entryX=0.5;entryY=0;entryDx=0;entryDy=0;" edge="1" parent="1" source="8iXjHYZFnUyKZ5IibE8D-41" target="8iXjHYZFnUyKZ5IibE8D-46">
          <mxGeometry relative="1" as="geometry">
            <Array as="points">
              <mxPoint x="820" y="600" />
              <mxPoint x="470" y="600" />
            </Array>
          </mxGeometry>
        </mxCell>
        <mxCell id="8iXjHYZFnUyKZ5IibE8D-41" value="Payload Data Endpoint&lt;div&gt;https://api.spacexdata.com/v4/payloads/&lt;br&gt;&lt;/div&gt;" style="whiteSpace=wrap;html=1;rounded=0;" vertex="1" parent="1">
          <mxGeometry x="710" y="540" width="220" height="40" as="geometry" />
        </mxCell>
        <mxCell id="8iXjHYZFnUyKZ5IibE8D-49" style="edgeStyle=orthogonalEdgeStyle;rounded=0;orthogonalLoop=1;jettySize=auto;html=1;exitX=0.5;exitY=1;exitDx=0;exitDy=0;" edge="1" parent="1" source="8iXjHYZFnUyKZ5IibE8D-43" target="8iXjHYZFnUyKZ5IibE8D-46">
          <mxGeometry relative="1" as="geometry">
            <Array as="points">
              <mxPoint x="590" y="600" />
              <mxPoint x="470" y="600" />
            </Array>
          </mxGeometry>
        </mxCell>
        <mxCell id="8iXjHYZFnUyKZ5IibE8D-43" value="Code Data Endpoint&lt;div&gt;https://api.spacexdata.com/v4/cores/&lt;br&gt;&lt;/div&gt;" style="whiteSpace=wrap;html=1;rounded=0;" vertex="1" parent="1">
          <mxGeometry x="480" y="540" width="220" height="40" as="geometry" />
        </mxCell>
        <mxCell id="8iXjHYZFnUyKZ5IibE8D-60" style="edgeStyle=orthogonalEdgeStyle;rounded=0;orthogonalLoop=1;jettySize=auto;html=1;exitX=0.5;exitY=1;exitDx=0;exitDy=0;" edge="1" parent="1" source="8iXjHYZFnUyKZ5IibE8D-46" target="8iXjHYZFnUyKZ5IibE8D-51">
          <mxGeometry relative="1" as="geometry" />
        </mxCell>
        <mxCell id="8iXjHYZFnUyKZ5IibE8D-46" value="Convert Data to Dataframe" style="whiteSpace=wrap;html=1;rounded=0;" vertex="1" parent="1">
          <mxGeometry x="360" y="620" width="220" height="30" as="geometry" />
        </mxCell>
        <mxCell id="8iXjHYZFnUyKZ5IibE8D-54" value="" style="edgeStyle=orthogonalEdgeStyle;rounded=0;orthogonalLoop=1;jettySize=auto;html=1;" edge="1" parent="1" source="8iXjHYZFnUyKZ5IibE8D-51" target="8iXjHYZFnUyKZ5IibE8D-53">
          <mxGeometry relative="1" as="geometry" />
        </mxCell>
        <mxCell id="8iXjHYZFnUyKZ5IibE8D-51" value="Filter Booster Version for &quot;Falcon 9&quot;" style="whiteSpace=wrap;html=1;rounded=0;" vertex="1" parent="1">
          <mxGeometry x="360" y="670" width="220" height="30" as="geometry" />
        </mxCell>
        <mxCell id="8iXjHYZFnUyKZ5IibE8D-59" style="edgeStyle=orthogonalEdgeStyle;rounded=0;orthogonalLoop=1;jettySize=auto;html=1;exitX=0.5;exitY=1;exitDx=0;exitDy=0;entryX=0.5;entryY=0;entryDx=0;entryDy=0;" edge="1" parent="1" source="8iXjHYZFnUyKZ5IibE8D-53" target="8iXjHYZFnUyKZ5IibE8D-55">
          <mxGeometry relative="1" as="geometry" />
        </mxCell>
        <mxCell id="8iXjHYZFnUyKZ5IibE8D-53" value="Calculate Mean Payload Mass" style="whiteSpace=wrap;html=1;rounded=0;" vertex="1" parent="1">
          <mxGeometry x="360" y="720" width="220" height="29" as="geometry" />
        </mxCell>
        <mxCell id="8iXjHYZFnUyKZ5IibE8D-55" value="Replace Missing Payload Mass with the Mean" style="whiteSpace=wrap;html=1;rounded=0;" vertex="1" parent="1">
          <mxGeometry x="323" y="770" width="290" height="27" as="geometry" />
        </mxCell>
      </root>
    </mxGraphModel>
  </diagram>
</mxfile>
